<svg width="58" height="58" viewBox="0 0 58 58" fill="none" xmlns="http://www.w3.org/2000/svg">
<circle cx="29" cy="29" r="29" fill="#CFD4FF"/>
<path d="M25.5 22.0001C25.6154 22.0001 25.7281 22.0343 25.8241 22.0984C25.92 22.1625 25.9948 22.2536 26.0389 22.3602C26.0831 22.4668 26.0946 22.584 26.0721 22.6972C26.0496 22.8104 25.994 22.9143 25.9125 22.9959C25.8309 23.0775 25.7269 23.133 25.6138 23.1555C25.5006 23.178 25.3833 23.1665 25.2767 23.1223C25.1702 23.0782 25.0791 23.0034 25.015 22.9075C24.9509 22.8116 24.9166 22.6988 24.9166 22.5834C24.9166 22.4287 24.9781 22.2803 25.0875 22.1709C25.1969 22.0615 25.3453 22.0001 25.5 22.0001ZM30.75 22.5834C30.75 22.468 30.7158 22.3552 30.6517 22.2593C30.5876 22.1634 30.4965 22.0886 30.3899 22.0445C30.2833 22.0003 30.166 21.9888 30.0528 22.0113C29.9397 22.0338 29.8357 22.0893 29.7542 22.1709C29.6726 22.2525 29.617 22.3564 29.5945 22.4696C29.572 22.5827 29.5836 22.7 29.6277 22.8066C29.6719 22.9132 29.7466 23.0043 29.8426 23.0684C29.9385 23.1325 30.0513 23.1667 30.1666 23.1667C30.3214 23.1667 30.4697 23.1053 30.5791 22.9959C30.6885 22.8865 30.75 22.7381 30.75 22.5834ZM39.6458 38.9167C39.647 39.1421 39.6035 39.3654 39.5179 39.5739C39.4323 39.7823 39.3063 39.9718 39.1471 40.1312C38.9623 40.3101 38.7433 40.4497 38.5032 40.5417C38.2631 40.6338 38.0069 40.6763 37.75 40.6667H21.8676L18.3611 38.9167L21.8611 37.1667H29.0741C22.5891 33.6871 22.5833 27.351 22.5833 22.5834C22.5504 21.4542 22.8588 20.3414 23.4682 19.3902C23.1846 19.1288 22.9592 18.8105 22.8067 18.4561C22.6542 18.1017 22.5781 17.7192 22.5833 17.3334H23.75C23.7465 17.5545 23.7887 17.7739 23.8739 17.978C23.9592 18.182 24.0856 18.3663 24.2452 18.5193C25.2591 17.7042 26.5334 17.283 27.8333 17.3334C29.1332 17.283 30.4075 17.7042 31.4214 18.5193C31.5811 18.3663 31.7075 18.182 31.7927 17.978C31.8779 17.7739 31.9201 17.5545 31.9166 17.3334H33.0833C33.0885 17.7192 33.0124 18.1017 32.8599 18.4561C32.7075 18.8105 32.4821 19.1288 32.1984 19.3902C32.8078 20.3414 33.1162 21.4542 33.0833 22.5834V24.6431C33.6406 24.9621 34.0989 25.4288 34.4077 25.9918C34.7165 26.5547 34.8638 27.192 34.8333 27.8334V36.5834H33.529L33.4053 36.5251C29.8126 34.7249 27.8333 31.6391 27.8333 27.8334C27.8075 27.3602 27.8793 26.8867 28.0441 26.4424C28.209 25.998 28.4634 25.5924 28.7916 25.2505C29.1198 24.9086 29.5148 24.6378 29.9521 24.455C30.3893 24.2721 30.8594 24.1811 31.3333 24.1876C31.5288 24.1884 31.7239 24.2049 31.9166 24.2371V22.5834C31.9466 21.7207 31.7292 20.8673 31.2901 20.1241C31.1601 20.2133 31.0282 20.2991 30.897 20.3883C29.6218 21.2376 28.4166 22.0397 28.4166 24.3334H27.25C27.25 22.0397 26.0448 21.2376 24.7696 20.3883C24.6384 20.3014 24.5066 20.2133 24.3765 20.1241C23.9374 20.8673 23.72 21.7207 23.75 22.5834C23.75 27.8334 23.75 34.3667 32.0123 37.1667H37.75C37.9913 37.1487 38.2337 37.1805 38.4622 37.2602C38.6907 37.3399 38.9003 37.4657 39.0781 37.6298C39.2559 37.7939 39.3981 37.9929 39.4957 38.2143C39.5934 38.4357 39.6445 38.6748 39.6458 38.9167ZM33.6666 27.8334C33.6827 27.4882 33.6264 27.1434 33.5013 26.8212C33.3762 26.4991 33.1852 26.2066 32.9404 25.9626C32.5013 25.5633 31.9268 25.3459 31.3333 25.3542C31.0119 25.3453 30.6922 25.4045 30.3953 25.528C30.0984 25.6514 29.8309 25.8363 29.6106 26.0704C29.3902 26.3046 29.2218 26.5827 29.1166 26.8866C29.0114 27.1904 28.9716 27.5131 29 27.8334C29 31.1304 30.6117 33.7216 33.6666 35.3438V27.8334ZM25.1832 19.2584C25.2596 19.3103 25.3337 19.3611 25.4166 19.4153C26.4097 19.976 27.2419 20.7828 27.8333 21.758C28.4252 20.7833 29.2579 19.9771 30.2512 19.4171C30.3329 19.3628 30.407 19.3121 30.4846 19.2601C29.7059 18.7276 28.7759 18.4609 27.8333 18.5001C26.8913 18.4607 25.9618 18.7267 25.1832 19.2584ZM35.4166 39.5001V38.3334H22.1376L20.971 38.9167L22.1417 39.5001H35.4166ZM38.4791 38.9167C38.4791 38.635 38.2872 38.3334 37.75 38.3334H36.5833V39.5001H37.75C37.9587 39.5138 38.1643 39.4441 38.3216 39.3064C38.3724 39.2551 38.4124 39.1942 38.4394 39.1273C38.4665 39.0605 38.48 38.9889 38.4791 38.9167Z" fill="#405EFF"/>
</svg>
