<svg width="58" height="58" viewBox="0 0 58 58" fill="none" xmlns="http://www.w3.org/2000/svg">
<circle cx="29" cy="29" r="29" fill="#B7FFC7"/>
<path d="M39.5 31.3333V19.6667H29.5833V18.5H28.4167V19.6667H18.5V31.3333H17.3333V32.5H40.6667V31.3333H39.5ZM19.6667 20.8333H38.3333V31.3333H36.5833V30.75C36.5833 30.4406 36.4604 30.1438 36.2416 29.925C36.0228 29.7062 35.7261 29.5833 35.4167 29.5833H33.0833C32.7739 29.5833 32.4772 29.7062 32.2584 29.925C32.0396 30.1438 31.9167 30.4406 31.9167 30.75V31.3333H19.6667V20.8333ZM35.4167 31.3333H33.0833V30.75H35.4167V31.3333ZM26.0833 33.0833H27.25V33.7903L24.9167 39.0403V39.5H23.75V38.793L26.0833 33.543V33.0833ZM31.9167 33.543L34.25 38.793V39.5H33.0833V39.0403L30.75 33.7903V33.0833H31.9167V33.543ZM28.4167 33.0833H29.5833V39.5H28.4167V33.0833Z" fill="#405EFF"/>
</svg>
