<svg width="58" height="58" viewBox="0 0 58 58" fill="none" xmlns="http://www.w3.org/2000/svg">
<circle cx="29" cy="29" r="29" fill="#F1B7FF"/>
<path d="M39.5 38.2388V39.5H29.5833V38.3333H38.3018L36.3576 32.5H31.9167V31.3333H35.9685L34.25 26.1778V19.6667H32.5V26.1778L31.303 29.7677L30.1947 29.399L31.3333 25.9888V19.6667H30.75V18.5H36V19.6667H35.4167V25.9888L39.5 38.2388ZM25.5 39.5C24.1594 39.5006 22.8595 39.0394 21.8191 38.194C20.7786 37.3486 20.0611 36.1707 19.7872 34.8584C19.5133 33.546 19.6998 32.1794 20.3153 30.9885C20.9308 29.7975 21.9377 28.8549 23.1667 28.3193V23.1667H22.5833V22H28.4167V23.1667H27.8333V28.3193C29.0623 28.8549 30.0692 29.7975 30.6847 30.9885C31.3002 32.1794 31.4867 33.546 31.2128 34.8584C30.9389 36.1707 30.2214 37.3486 29.1809 38.194C28.1405 39.0394 26.8406 39.5006 25.5 39.5ZM20.8333 33.6667H30.1667C30.1657 32.7017 29.8662 31.7607 29.3092 30.9727C28.7522 30.1847 27.9651 29.5883 27.0557 29.2654L26.6667 29.1277V23.1667H24.3333V29.1277L23.9443 29.2654C23.0349 29.5883 22.2478 30.1847 21.6908 30.9727C21.1338 31.7607 20.8343 32.7017 20.8333 33.6667ZM30.0132 34.8333H20.9867C21.2439 35.8349 21.827 36.7225 22.6441 37.3563C23.4612 37.9901 24.4659 38.3341 25.5 38.3341C26.5341 38.3341 27.5388 37.9901 28.3559 37.3563C29.173 36.7225 29.7561 35.8349 30.0132 34.8333Z" fill="#405EFF"/>
</svg>
