<svg width="58" height="58" viewBox="0 0 58 58" fill="none" xmlns="http://www.w3.org/2000/svg">
<circle cx="29" cy="29" r="29" fill="#9CF3FF"/>
<path d="M29 34.8333C31.4803 34.8333 33.0833 33.0016 33.0833 30.1666V21.9999C33.0833 19.1649 31.4803 17.3333 29 17.3333C26.5196 17.3333 24.9166 19.1649 24.9166 21.9999V30.1666C24.9166 33.0016 26.5196 34.8333 29 34.8333ZM29 18.4999C31.6326 18.4999 31.9166 20.9499 31.9166 21.9999V25.4999H26.0833V21.9999C26.0833 20.9499 26.3674 18.4999 29 18.4999ZM26.0833 26.6666H31.9166V30.1666C31.9166 31.2166 31.6326 33.6666 29 33.6666C26.3674 33.6666 26.0833 31.2166 26.0833 30.1666V26.6666ZM29.5833 37.1357V39.4999H32.5V40.6666H25.5V39.4999H28.4166V37.1357C26.8253 36.9848 25.3469 36.2477 24.2688 35.0675C23.1907 33.8873 22.5899 32.3484 22.5833 30.7499H23.75C23.75 32.1423 24.3031 33.4777 25.2877 34.4622C26.2722 35.4468 27.6076 35.9999 29 35.9999C30.3924 35.9999 31.7277 35.4468 32.7123 34.4622C33.6969 33.4777 34.25 32.1423 34.25 30.7499H35.4166C35.41 32.3484 34.8093 33.8873 33.7312 35.0675C32.6531 36.2477 31.1747 36.9848 29.5833 37.1357Z" fill="#405EFF"/>
</svg>
