<svg width="58" height="58" viewBox="0 0 58 58" fill="none" xmlns="http://www.w3.org/2000/svg">
<circle cx="29" cy="29" r="29" fill="#FFD3D3"/>
<path d="M38.7457 23.5791C40.0798 22.245 40.1918 20.6998 39.0374 19.5459C37.883 18.3921 36.3383 18.5035 35.0042 19.8376L34.0085 20.8334L37.75 24.5749L38.7457 23.5791ZM35.8291 20.6624C36.4392 20.0523 37.3457 19.5063 38.2126 20.3708C39.0794 21.2353 38.5311 22.1441 37.9209 22.7543L37.75 22.9252L35.6582 20.8334L35.8291 20.6624ZM36.1709 24.5043L24.0662 36.609L23.813 35.5958L35.538 23.8708L34.7132 23.0459L22.9882 34.7709L21.9749 34.5178L34.0791 22.4124L33.2542 21.5876L20.3317 34.5102L18.2416 40.0834H19.7862L24.0831 38.2418L36.9957 25.3291L36.1709 24.5043ZM21.1967 35.5258L22.6854 35.8979L23.0634 37.4094L19.9974 38.7236L21.1967 35.5258Z" fill="#405EFF"/>
</svg>
