<svg width="20" height="21" viewBox="0 0 20 21" fill="none" xmlns="http://www.w3.org/2000/svg">
<path d="M8 8.5C8 8.30222 7.94136 8.10888 7.83147 7.94443C7.72159 7.77998 7.56541 7.65181 7.38269 7.57612C7.19996 7.50043 6.9989 7.48063 6.80491 7.51921C6.61093 7.5578 6.43275 7.65304 6.2929 7.79289C6.15305 7.93275 6.0578 8.11093 6.01922 8.30491C5.98063 8.49889 6.00044 8.69996 6.07612 8.88268C6.15181 9.06541 6.27998 9.22159 6.44443 9.33147C6.60888 9.44135 6.80222 9.5 7 9.5C7.26522 9.5 7.51957 9.39464 7.70711 9.20711C7.89465 9.01957 8 8.76522 8 8.5ZM12.5 12.56C12.3865 12.4935 12.2609 12.45 12.1305 12.4321C12.0002 12.4142 11.8675 12.4222 11.7403 12.4556C11.613 12.4891 11.4936 12.5473 11.3889 12.627C11.2841 12.7067 11.1962 12.8062 11.13 12.92C11.0165 13.1196 10.8521 13.2856 10.6536 13.401C10.4551 13.5165 10.2296 13.5773 10 13.5773C9.77039 13.5773 9.54486 13.5165 9.34638 13.401C9.14789 13.2856 8.98353 13.1196 8.87 12.92C8.80384 12.8062 8.71588 12.7067 8.61115 12.627C8.50643 12.5473 8.38701 12.4891 8.25973 12.4556C8.13246 12.4222 7.99984 12.4142 7.86947 12.4321C7.73909 12.45 7.61354 12.4935 7.5 12.56C7.27127 12.6919 7.104 12.9089 7.03468 13.1637C6.96537 13.4185 6.99963 13.6904 7.13 13.92C7.42005 14.4248 7.83811 14.8442 8.34201 15.1358C8.8459 15.4274 9.4178 15.581 10 15.581C10.5822 15.581 11.1541 15.4274 11.658 15.1358C12.1619 14.8442 12.58 14.4248 12.87 13.92C13.0004 13.6904 13.0346 13.4185 12.9653 13.1637C12.896 12.9089 12.7287 12.6919 12.5 12.56ZM13 7.5C12.8022 7.5 12.6089 7.55865 12.4444 7.66853C12.28 7.77841 12.1518 7.93459 12.0761 8.11732C12.0004 8.30004 11.9806 8.50111 12.0192 8.69509C12.0578 8.88907 12.153 9.06725 12.2929 9.20711C12.4328 9.34696 12.6109 9.4422 12.8049 9.48079C12.9989 9.51937 13.2 9.49957 13.3827 9.42388C13.5654 9.34819 13.7216 9.22002 13.8315 9.05557C13.9414 8.89112 14 8.69778 14 8.5C14 8.23478 13.8946 7.98043 13.7071 7.79289C13.5196 7.60536 13.2652 7.5 13 7.5ZM10 0.5C8.02219 0.5 6.08879 1.08649 4.4443 2.1853C2.79981 3.28412 1.51809 4.8459 0.761209 6.67317C0.00433284 8.50043 -0.193701 10.5111 0.192152 12.4509C0.578004 14.3907 1.53041 16.1725 2.92894 17.5711C4.32746 18.9696 6.10929 19.922 8.0491 20.3079C9.98891 20.6937 11.9996 20.4957 13.8268 19.7388C15.6541 18.9819 17.2159 17.7002 18.3147 16.0557C19.4135 14.4112 20 12.4778 20 10.5C20 9.18678 19.7413 7.88642 19.2388 6.67317C18.7363 5.45991 17.9997 4.35752 17.0711 3.42893C16.1425 2.50035 15.0401 1.76375 13.8268 1.2612C12.6136 0.758658 11.3132 0.5 10 0.5ZM10 18.5C8.13732 18.508 6.33021 17.8658 4.89032 16.6842C3.45043 15.5025 2.46802 13.8554 2.11252 12.0269C1.75702 10.1984 2.05071 8.30322 2.94293 6.66811C3.83516 5.03299 5.27 3.76047 7 3.07C6.98972 3.21315 6.98972 3.35685 7 3.5C7 4.29565 7.31607 5.05871 7.87868 5.62132C8.44129 6.18393 9.20436 6.5 10 6.5C10.2652 6.5 10.5196 6.39464 10.7071 6.20711C10.8946 6.01957 11 5.76522 11 5.5C11 5.23478 10.8946 4.98043 10.7071 4.79289C10.5196 4.60536 10.2652 4.5 10 4.5C9.73479 4.5 9.48043 4.39464 9.2929 4.20711C9.10536 4.01957 9 3.76522 9 3.5C9 3.23478 9.10536 2.98043 9.2929 2.79289C9.48043 2.60536 9.73479 2.5 10 2.5C12.1217 2.5 14.1566 3.34285 15.6569 4.84315C17.1572 6.34344 18 8.37827 18 10.5C18 12.6217 17.1572 14.6566 15.6569 16.1569C14.1566 17.6571 12.1217 18.5 10 18.5Z" fill="black"/>
</svg>
