<?xml version="1.0" encoding="utf-8"?>
<!-- Generator: Adobe Illustrator 16.0.3, SVG Export Plug-In . SVG Version: 6.00 Build 0)  -->
<!DOCTYPE svg PUBLIC "-//W3C//DTD SVG 1.1//EN" "http://www.w3.org/Graphics/SVG/1.1/DTD/svg11.dtd">
<svg version="1.1" id="Layer_1" xmlns="http://www.w3.org/2000/svg" xmlns:xlink="http://www.w3.org/1999/xlink" x="0px" y="0px"
	 width="60px" height="60px" viewBox="0 0 60 60" enable-background="new 0 0 60 60" xml:space="preserve">
<g>
	<g>
		<path fill="#231F20" d="M30,60C13.458,60,0,46.543,0,30C0,13.458,13.458,0,30,0c16.543,0,30,13.458,30,30
			C60,46.543,46.543,60,30,60z M30,2.937C15.076,2.937,2.937,15.077,2.937,30S15.076,57.064,30,57.064
			c14.923,0,27.064-12.142,27.064-27.064S44.923,2.937,30,2.937z"/>
	</g>
	<g>
		<path fill="#231F20" d="M27.445,37.268l-0.095-1.229c-0.284-2.556,0.567-5.347,2.933-8.186c2.129-2.508,3.312-4.354,3.312-6.482
			c0-2.413-1.515-4.021-4.495-4.068c-1.703,0-3.596,0.567-4.778,1.467l-1.135-2.981c1.561-1.136,4.258-1.892,6.765-1.892
			c5.442,0,7.901,3.358,7.901,6.954c0,3.218-1.798,5.536-4.069,8.232c-2.081,2.461-2.838,4.543-2.697,6.956l0.048,1.229H27.445z
			 M26.404,43.891c0-1.749,1.182-2.98,2.839-2.98c1.655,0,2.791,1.231,2.791,2.98c0,1.657-1.088,2.935-2.839,2.935
			C27.54,46.825,26.404,45.548,26.404,43.891z"/>
	</g>
</g>
</svg>
