<svg width="50" height="35" viewBox="0 0 50 35" fill="none" xmlns="http://www.w3.org/2000/svg">
<path d="M21.1729 7.87939C18.7236 7.94385 16.7739 8.34668 15.3237 9.08789C13.8735 9.79688 12.7295 10.9248 11.8916 12.4717C15.2432 12.4717 18.0146 13.2935 20.2061 14.937C22.4297 16.5806 23.5415 19.2554 23.5415 22.9614C23.5415 24.3472 23.2998 25.7007 22.8164 27.022C22.333 28.3433 21.5918 29.5195 20.5928 30.5508C19.5938 31.5498 18.3853 32.3877 16.9673 33.0645C15.5493 33.709 13.9219 34.0312 12.085 34.0312C8.44336 34.0312 5.51074 32.855 3.28711 30.5024C1.0957 28.1177 0 24.9434 0 20.9795C0 18.7881 0.306152 16.5806 0.918457 14.3569C1.56299 12.1011 2.69092 10.0225 4.30225 8.12109C5.91357 6.1875 8.08887 4.49561 10.8281 3.04541C13.5674 1.59521 17.0156 0.580078 21.1729 0V7.87939ZM46.938 7.87939C44.4888 7.94385 42.5391 8.34668 41.0889 9.08789C39.6387 9.79688 38.4785 10.9248 37.6084 12.4717C40.9922 12.4717 43.7798 13.2935 45.9712 14.937C48.1948 16.5806 49.3066 19.2554 49.3066 22.9614C49.3066 24.3472 49.0488 25.7007 48.5332 27.022C48.0498 28.3433 47.3086 29.5195 46.3096 30.5508C45.3428 31.5498 44.1504 32.3877 42.7324 33.0645C41.3145 33.709 39.6709 34.0312 37.8018 34.0312C34.1924 34.0312 31.2759 32.855 29.0522 30.5024C26.8286 28.1177 25.7168 24.9434 25.7168 20.9795C25.7168 18.7881 26.0229 16.5806 26.6353 14.3569C27.2798 12.1011 28.4077 10.0225 30.019 8.12109C31.6626 6.1875 33.854 4.49561 36.5933 3.04541C39.3325 1.59521 42.7808 0.580078 46.938 0V7.87939Z" fill="#515661"/>
</svg>
